<svg width="588" height="566" viewBox="0 0 588 566" fill="none" xmlns="http://www.w3.org/2000/svg">
<path d="M576.845 533.109C576.845 552.922 564.094 565.674 533.295 565.674H508.969C475.816 565.674 461.495 552.138 461.495 517.219V496.032C461.495 460.721 477.581 447.969 508.969 447.969H530.941C564.486 447.969 576.453 464.056 576.453 497.405V509.764H477.974V517.807C477.974 544.094 487.39 550.372 508.577 550.372H532.118C552.912 550.372 559.582 544.683 559.582 533.109H576.845ZM559.582 497.209V496.817C559.582 472.099 552.127 463.663 530.156 463.663H508.577C488.959 463.663 477.974 467.783 477.974 495.443V497.209H559.582Z" fill="url(#paint0_linear_763_66)"/>
<path d="M450.435 449.147L400.803 565.086H378.831L329.199 449.147H347.247L389.817 550.372L432.387 449.147H450.435Z" fill="url(#paint1_linear_763_66)"/>
<path d="M315.213 564.693H300.5L300.108 551.745C293.438 560.769 282.844 565.674 266.758 565.674H250.476C216.93 565.674 207.317 555.08 207.317 519.965V449.539H223.6V519.181C223.6 542.918 229.877 549.391 253.026 549.391H267.543C290.887 549.391 298.734 538.209 298.734 517.219V449.539H315.213V564.693Z" fill="url(#paint2_linear_763_66)"/>
<path d="M188.31 565.085H171.243V489.362C171.243 473.865 164.377 464.644 151.037 464.644H134.559C115.726 464.644 110.429 475.826 110.429 489.362V565.085H93.7544V489.362C93.7544 471.118 86.4959 464.644 72.5676 464.644H66.4862H57.6411H42.8691V448.166C42.8691 448.166 50.0076 448.166 62.9551 448.166H76.2949C89.0462 448.166 100.424 451.305 106.31 464.448C111.214 454.443 120.826 448.166 135.736 448.166H155.157C175.167 448.166 188.31 460.721 188.31 486.812V565.085Z" fill="url(#paint3_linear_763_66)"/>
<path d="M2 12C21.4667 -1.33333 40.9333 -1.33333 60.4 12C79.8667 25.3333 99.3333 25.3333 118.8 12C138.267 -1.33333 157.733 -1.33333 177.2 12C196.667 25.3333 216.133 25.3333 235.6 12C255.067 -1.33333 274.533 -1.33333 294 12C313.467 25.3333 332.933 25.3333 352.4 12C371.867 -1.33333 391.333 -1.33333 410.8 12C430.267 25.3333 449.733 25.3333 469.2 12C488.667 -1.33333 508.133 -1.33333 527.6 12C547.067 25.3333 566.533 25.3333 586 12" stroke="white" stroke-width="4"/>
<path d="M296 249.292V123.75H391.333V159.5H319.833V290.583C319.831 301.076 316.367 311.275 309.978 319.598C303.588 327.921 294.632 333.903 284.496 336.617C274.36 339.331 263.613 338.625 253.919 334.608C244.226 330.592 236.129 323.489 230.884 314.401C225.638 305.314 223.538 294.75 224.908 284.347C226.279 273.944 231.043 264.284 238.463 256.865C245.883 249.446 255.543 244.683 265.946 243.314C276.349 241.944 286.913 244.046 296 249.292Z" fill="#4B91ED"/>
<circle cx="174.761" cy="122.196" r="15.5435" fill="white"/>
<circle cx="193.413" cy="227.892" r="9.32609" fill="white"/>
<circle cx="153" cy="182" r="12" fill="white"/>
<path d="M35 447H18V537H35V447Z" fill="#F23737"/>
<rect x="18" y="550" width="17" height="16" fill="#F23737"/>
<defs>
<linearGradient id="paint0_linear_763_66" x1="296.264" y1="423.602" x2="296.264" y2="704.957" gradientUnits="userSpaceOnUse">
<stop stop-color="white"/>
<stop offset="0.395" stop-color="#1A73E8"/>
<stop offset="0.53" stop-color="#36457B"/>
</linearGradient>
<linearGradient id="paint1_linear_763_66" x1="296.261" y1="423.603" x2="296.261" y2="704.958" gradientUnits="userSpaceOnUse">
<stop stop-color="white"/>
<stop offset="0.395" stop-color="#1A73E8"/>
<stop offset="0.53" stop-color="#36457B"/>
</linearGradient>
<linearGradient id="paint2_linear_763_66" x1="296.262" y1="423.603" x2="296.262" y2="704.957" gradientUnits="userSpaceOnUse">
<stop stop-color="white"/>
<stop offset="0.395" stop-color="#1A73E8"/>
<stop offset="0.53" stop-color="#36457B"/>
</linearGradient>
<linearGradient id="paint3_linear_763_66" x1="296.263" y1="423.603" x2="296.263" y2="704.957" gradientUnits="userSpaceOnUse">
<stop stop-color="white"/>
<stop offset="0.395" stop-color="#1A73E8"/>
<stop offset="0.53" stop-color="#36457B"/>
</linearGradient>
</defs>
</svg>
