<svg width="23" height="25" viewBox="0 0 23 25" fill="none" xmlns="http://www.w3.org/2000/svg">
<g clip-path="url(#clip0_476_542)">
<path d="M6.26594 3.22597V18.8813C5.20366 18.5784 3.79265 18.755 2.49967 19.4618C0.466315 20.5674 -0.526221 22.5414 0.289268 23.8691C1.10476 25.1969 3.4171 25.3786 5.45045 24.273C7.32822 23.2532 7.854 21.5469 7.81644 20.1888V7.08805L21.4544 4.59915L21.3203 15.519C20.2526 15.2009 18.8309 15.3776 17.5165 16.0895C15.4831 17.1951 14.4906 19.169 15.3061 20.4968C16.1216 21.8245 18.4339 22.0063 20.4672 20.9006C22.3933 19.8556 22.9298 18.124 22.8493 16.7104L22.9996 4.31644V0L6.26594 3.22597Z" fill="#FBFBFB" fill-opacity="0.866667"/>
</g>
<defs>
<clipPath id="clip0_476_542">
<rect width="23" height="25" fill="white"/>
</clipPath>
</defs>
</svg>
