<svg width="24" height="24" viewBox="0 0 24 24" fill="none" xmlns="http://www.w3.org/2000/svg">
<g clip-path="url(#clip0_333_250)">
<path d="M16.9602 0H7.03984C3.15185 0 0 3.15185 0 7.03984V16.9602C0 20.8482 3.15185 24 7.03984 24H16.9602C20.8482 24 24 20.8482 24 16.9602V7.03984C24 3.15185 20.8482 0 16.9602 0Z" fill="#231815"/>
<path d="M20.3215 10.4424H13.5574V3.67829C13.5574 2.82178 12.8593 2.12366 12.0028 2.12366C11.1463 2.12366 10.4482 2.82178 10.4482 3.67829V10.4424H3.67817C2.82165 10.4424 2.12354 11.1405 2.12354 11.997C2.12354 12.8536 2.82165 13.5517 3.67817 13.5517H10.4423V20.3158C10.4423 21.1723 11.1404 21.8704 11.9969 21.8704C12.8534 21.8704 13.5515 21.1723 13.5515 20.3158V13.5517H20.3157C21.1722 13.5517 21.8703 12.8536 21.8703 11.997C21.8703 11.1405 21.1722 10.4424 20.3157 10.4424H20.3215Z" fill="white" stroke="#231815" stroke-miterlimit="10"/>
</g>
<defs>
<clipPath id="clip0_333_250">
<rect width="24" height="24" fill="white"/>
</clipPath>
</defs>
</svg>
