<svg width="25" height="25" viewBox="0 0 25 25" fill="none" xmlns="http://www.w3.org/2000/svg">
<g clip-path="url(#clip0_425_89)">
<path d="M24.9047 22.3956L17.4922 14.4497C18.7308 12.9443 19.4667 11.0659 19.4667 9.0289C19.468 4.07648 15.1251 0.0620117 9.76745 0.0620117C4.40983 0.0620117 0.0668945 4.07648 0.0668945 9.0289C0.0668945 13.9813 4.40983 17.9958 9.76745 17.9958C11.4121 17.9958 12.9603 17.6167 14.3168 16.9488L21.748 24.9133L24.906 22.3956H24.9047ZM9.76611 14.1882C6.68316 14.1882 4.18464 11.8787 4.18464 9.0289C4.18464 6.17913 6.68316 3.86956 9.76611 3.86956C12.8491 3.86956 15.3476 6.17913 15.3476 9.0289C15.3476 11.8787 12.8491 14.1882 9.76611 14.1882Z" fill="white" stroke="#231815" stroke-miterlimit="10"/>
</g>
<defs>
<clipPath id="clip0_425_89">
<rect width="25" height="25" fill="white"/>
</clipPath>
</defs>
</svg>
